# xmcd
#
# Track frame offsets:
#	150
#	18750
#	37260
#	54227
#
# Disc length: 945 seconds
#
# Revision: 1
# Processed by: cddbd v1.5.1PL0 Copyright (c) Steve Scherf et al.
# Submitted via: CDex 1.50Beta5
#
DISCID=2803af04
DTITLE=吉幾三 - 酒よ
DYEAR=1900
DGENRE=Enka
TTITLE0=酒よ
TTITLE1=酒よ (オリジナル・カラオケ)
TTITLE2=帰郷
TTITLE3=帰郷 (オリジナル・カラオケ)
EXTD=
EXTT0=
EXTT1=
EXTT2=
EXTT3=
PLAYORDER=
